<?xml version="1.0" encoding="utf-8"?>
<!-- Generator: Adobe Illustrator 16.0.0, SVG Export Plug-In . SVG Version: 6.00 Build 0)  -->
<!DOCTYPE svg PUBLIC "-//W3C//DTD SVG 1.1//EN" "http://www.w3.org/Graphics/SVG/1.1/DTD/svg11.dtd">
<svg version="1.1" id="Layer_1" xmlns="http://www.w3.org/2000/svg" xmlns:xlink="http://www.w3.org/1999/xlink" x="0px" y="0px"
	 width="693.548px" height="103.872px" viewBox="0 0 693.548 103.872" enable-background="new 0 0 693.548 103.872"
	 xml:space="preserve">
<g>
	<path fill="#FFFFFF" d="M56.942,78.157c-0.127-0.205-0.365-0.449-0.707-0.723c-0.247-0.203-0.4-0.334-0.47-0.404
		c-0.089-0.098-0.155-0.189-0.2-0.27c-0.025-0.063-0.043-0.129-0.043-0.197c-0.005-0.105,0.03-0.188,0.105-0.248
		c0.074-0.061,0.181-0.074,0.316-0.039c0.182,0.049,0.349,0.176,0.511,0.381c0.162,0.201,0.271,0.449,0.314,0.729l0.007,0.018
		l0.144,0.043l-0.056-1.154v-0.021l-0.115-0.029l-0.008,0.033c-0.021,0.121-0.041,0.15-0.045,0.158
		c-0.014,0.01-0.031,0.014-0.058,0.006c-0.021-0.004-0.08-0.035-0.194-0.123c-0.101-0.082-0.179-0.141-0.25-0.178
		c-0.088-0.051-0.185-0.088-0.28-0.111c-0.264-0.072-0.484-0.029-0.656,0.119c-0.171,0.146-0.253,0.359-0.25,0.631
		c0.004,0.156,0.043,0.313,0.11,0.463c0.065,0.143,0.164,0.289,0.276,0.422c0.123,0.135,0.317,0.314,0.581,0.529
		c0.188,0.15,0.325,0.273,0.395,0.354c0.074,0.084,0.129,0.164,0.168,0.246c0.035,0.078,0.056,0.154,0.056,0.229
		c0.006,0.123-0.038,0.215-0.116,0.287c-0.089,0.066-0.203,0.08-0.352,0.045c-0.199-0.051-0.393-0.191-0.569-0.418
		c-0.179-0.227-0.307-0.521-0.373-0.887l-0.01-0.014l-0.13-0.035l0.035,1.289v0.023l0.123,0.033l0.009-0.025
		c0.022-0.057,0.047-0.09,0.083-0.111c0.035-0.014,0.066-0.021,0.095-0.012c0.041,0.008,0.089,0.037,0.159,0.084
		c0.119,0.09,0.227,0.162,0.314,0.201c0.079,0.047,0.167,0.08,0.264,0.102c0.095,0.023,0.188,0.039,0.275,0.039
		c0.176,0,0.331-0.055,0.453-0.158c0.192-0.156,0.29-0.381,0.28-0.668C57.127,78.571,57.059,78.356,56.942,78.157 M55.276,76.079
		l-0.004-0.146l-0.972-0.25l-0.041-0.01l0.012,0.15l0.017,0.006c0.101,0.025,0.175,0.063,0.233,0.104
		c0.038,0.021,0.068,0.063,0.091,0.096c0.026,0.041,0.035,0.088,0.035,0.127c0,0.037-0.004,0.086-0.014,0.141
		c-0.016,0.057-0.055,0.164-0.117,0.318l-0.507,1.248l-0.632-1.732c-0.062-0.176-0.11-0.305-0.118-0.348
		c-0.013-0.045-0.019-0.078-0.019-0.104c0-0.047,0.013-0.061,0.026-0.07c0.04-0.016,0.119-0.014,0.236,0.018l0.084,0.023
		l-0.008-0.154l-1.38-0.354l-0.03-0.008l-0.033-0.008l-2.373-0.615l-0.043-0.014l-1.015-0.26L48,76.161l-0.84-2.311l-0.006-0.016
		l-1.196-0.311l-0.038-0.008l0.009,0.148l0.11,0.033c0.078,0.018,0.14,0.045,0.179,0.09c0.05,0.039,0.078,0.08,0.093,0.121
		c0.009,0.029,0.024,0.109,0.03,0.311l0.054,2.096c0.01,0.18,0.004,0.234,0.004,0.242c-0.015,0.063-0.029,0.117-0.052,0.145
		c-0.027,0.031-0.058,0.049-0.104,0.059c-0.055,0.01-0.108,0.008-0.17-0.01l-0.064-0.018l0.004,0.152l1.008,0.26l0.038,0.01
		l-0.006-0.15l-0.019-0.01c-0.125-0.031-0.221-0.076-0.283-0.143c-0.057-0.061-0.096-0.135-0.113-0.211
		c-0.011-0.041-0.014-0.137-0.018-0.297l-0.053-2.152l1.137,3.133l0.093,0.023l0.984-2.615l0.057,2.299
		c0.008,0.211-0.003,0.275-0.013,0.293c-0.014,0.039-0.033,0.063-0.062,0.076c-0.044,0.02-0.104,0.018-0.185-0.002l-0.133-0.035
		l0.006,0.15l1.361,0.355l2.545,0.658l0.111-1.053v-0.023l-0.133-0.033l-0.01,0.029c-0.062,0.264-0.165,0.445-0.317,0.543
		c-0.147,0.098-0.358,0.111-0.618,0.043l-0.173-0.045c-0.077-0.02-0.131-0.047-0.166-0.078c-0.033-0.029-0.058-0.068-0.069-0.105
		c-0.015-0.041-0.022-0.154-0.027-0.336l-0.025-0.889c0.112,0.033,0.207,0.08,0.273,0.127c0.061,0.061,0.126,0.152,0.179,0.283
		c0.063,0.129,0.097,0.291,0.119,0.479l0.003,0.023l0.143,0.037l-0.049-1.775l-0.006-0.023l-0.132-0.033l-0.003,0.033
		c-0.013,0.244-0.063,0.424-0.137,0.529c-0.069,0.104-0.194,0.131-0.36,0.086l-0.041-0.012l-0.03-1.281l0.262,0.066
		c0.215,0.051,0.358,0.109,0.438,0.154c0.132,0.08,0.237,0.182,0.312,0.301s0.137,0.305,0.185,0.549l0.004,0.021l0.136,0.033
		l-0.02-0.879c0.078,0.041,0.141,0.082,0.175,0.135c0.031,0.045,0.091,0.184,0.254,0.613l1.06,2.9l0.109,0.033l0.941-2.297
		c0.109-0.268,0.193-0.436,0.246-0.498c0.071-0.078,0.154-0.115,0.247-0.111L55.276,76.079z M49.897,77.735
		c-0.074-0.018-0.137-0.045-0.185-0.086c-0.043-0.041-0.076-0.082-0.091-0.123c-0.009-0.031-0.022-0.107-0.028-0.314l-0.056-2.18
		c-0.01-0.209,0.007-0.271,0.011-0.291c0.015-0.039,0.036-0.063,0.067-0.072c0.044-0.021,0.104-0.018,0.181,0l0.03,0.01l0.019,0.006
		c0.089,0.02,0.162,0.057,0.206,0.113c0.038,0.039,0.064,0.088,0.077,0.143c0.011,0.029,0.015,0.121,0.021,0.275l0.055,2.17
		c0.005,0.209-0.003,0.271-0.017,0.291c-0.014,0.041-0.034,0.066-0.062,0.08c-0.043,0.016-0.104,0.014-0.186-0.004l-0.018-0.004
		L49.897,77.735z M53.795,73.739c-0.043,0.018-0.128,0.012-0.242-0.016l-0.109-0.025l0.009,0.152l1.595,0.412l0.035,0.008
		l-0.004-0.148l-0.018-0.008c-0.093-0.033-0.167-0.08-0.22-0.141c-0.07-0.08-0.172-0.264-0.287-0.549l-1.242-3.029l-0.088-0.02
		l-1.099,2.363c-0.106,0.217-0.189,0.355-0.258,0.414c-0.069,0.055-0.156,0.08-0.261,0.063l-0.036-0.004l0.006,0.152l1.099,0.283
		l0.038,0.008l-0.004-0.146l-0.018-0.008c-0.162-0.059-0.271-0.102-0.311-0.137c-0.068-0.059-0.107-0.125-0.107-0.211
		c-0.005-0.066,0.022-0.141,0.059-0.234l0.117-0.268l1.106,0.291l0.183,0.441c0.057,0.152,0.067,0.191,0.073,0.201
		c0.006,0.029,0.015,0.057,0.02,0.086C53.832,73.718,53.806,73.731,53.795,73.739z M53.444,72.673l-0.888-0.234l0.42-0.912
		L53.444,72.673z M50.965,70.153c0.104,0.076,0.188,0.166,0.254,0.27c0.058,0.105,0.121,0.264,0.176,0.482l0.009,0.018l0.142,0.035
		l-0.026-0.938v-0.02l-2.941-0.762l-0.039-0.012l0.028,0.938v0.023l0.142,0.037l0.007-0.033c0.03-0.227,0.108-0.387,0.237-0.475
		c0.088-0.064,0.237-0.068,0.443-0.018l0.217,0.057l0.063,2.531c0.006,0.211-0.003,0.268-0.018,0.287
		c-0.012,0.043-0.044,0.064-0.073,0.078c-0.049,0.012-0.118,0.01-0.206-0.01l-0.148-0.039l0.005,0.152l1.719,0.445l0.039,0.008
		l-0.003-0.15l-0.128-0.033c-0.091-0.023-0.162-0.057-0.209-0.096c-0.05-0.045-0.085-0.088-0.102-0.129
		c-0.015-0.033-0.03-0.107-0.036-0.314l-0.062-2.512l0.201,0.051C50.799,70.065,50.906,70.106,50.965,70.153z M47.226,72.083
		c-0.23-0.057-0.444-0.205-0.644-0.436c-0.201-0.234-0.34-0.537-0.423-0.895l-0.002-0.02l-0.14-0.035l0.028,1.287v0.021l0.139,0.037
		l0.009-0.021c0.021-0.055,0.054-0.09,0.095-0.107c0.036-0.018,0.075-0.021,0.106-0.014c0.049,0.014,0.111,0.047,0.185,0.092
		c0.135,0.096,0.254,0.168,0.346,0.211c0.098,0.049,0.195,0.084,0.301,0.107c0.122,0.037,0.232,0.051,0.341,0.051
		c0.181,0,0.345-0.051,0.479-0.145c0.211-0.148,0.317-0.369,0.312-0.656c-0.003-0.225-0.077-0.441-0.219-0.643
		c-0.137-0.207-0.402-0.461-0.787-0.75c-0.279-0.207-0.447-0.344-0.527-0.416c-0.1-0.1-0.176-0.191-0.219-0.279
		c-0.031-0.059-0.053-0.127-0.053-0.193c-0.005-0.105,0.04-0.188,0.123-0.246c0.08-0.059,0.2-0.064,0.357-0.029
		c0.206,0.055,0.398,0.188,0.574,0.398c0.183,0.209,0.304,0.459,0.351,0.744l0.004,0.018l0.158,0.037l-0.056-1.148v-0.021
		l-0.127-0.035l-0.006,0.031c-0.021,0.117-0.039,0.148-0.047,0.158c-0.021,0.008-0.045,0.012-0.071,0.006
		c-0.027-0.006-0.091-0.035-0.22-0.133c-0.115-0.084-0.207-0.145-0.285-0.182c-0.095-0.053-0.201-0.094-0.31-0.123
		c-0.299-0.074-0.543-0.039-0.737,0.1c-0.192,0.139-0.283,0.352-0.28,0.621c0.003,0.158,0.048,0.314,0.118,0.467
		c0.074,0.15,0.185,0.293,0.312,0.434c0.137,0.137,0.347,0.316,0.652,0.547c0.22,0.158,0.359,0.279,0.442,0.365
		c0.084,0.086,0.148,0.166,0.186,0.25c0.045,0.08,0.064,0.158,0.064,0.23c0.006,0.121-0.04,0.211-0.136,0.279
		C47.524,72.114,47.391,72.128,47.226,72.083z M55.079,66.112l0.132,0.035c0.083,0.021,0.152,0.055,0.206,0.096
		c0.044,0.039,0.085,0.084,0.101,0.129c0.008,0.029,0.022,0.105,0.031,0.309l0.057,2.178c0.004,0.211-0.007,0.268-0.016,0.287
		c-0.02,0.045-0.041,0.066-0.072,0.078c-0.057,0.014-0.123,0.012-0.21-0.01l-0.146-0.037l0.005,0.154l1.714,0.441l0.044,0.012
		l-0.005-0.15l-0.136-0.037c-0.079-0.023-0.153-0.055-0.203-0.098c-0.053-0.043-0.082-0.082-0.102-0.121
		c-0.016-0.037-0.03-0.117-0.036-0.318l-0.054-2.176c-0.006-0.211,0.007-0.273,0.015-0.291c0.021-0.037,0.045-0.063,0.08-0.072
		c0.048-0.018,0.118-0.018,0.206,0.008l0.146,0.037l-0.005-0.15l-1.753-0.457V66.112z M55.136,68.108l-0.146-0.039l-0.007,0.027
		c-0.073,0.236-0.141,0.412-0.221,0.521c-0.079,0.105-0.172,0.172-0.272,0.199c-0.115,0.033-0.255,0.027-0.414-0.02l-0.277-0.064
		c-0.18-0.051-0.256-0.08-0.274-0.094c-0.055-0.031-0.088-0.074-0.108-0.119c-0.012-0.037-0.028-0.115-0.038-0.322l-0.05-2.105
		c-0.003-0.213,0.006-0.273,0.015-0.289c0.018-0.039,0.045-0.066,0.079-0.076c0.048-0.018,0.118-0.016,0.206,0.01l0.18,0.047
		l-0.003-0.152l-1.788-0.465l0.004,0.152l0.128,0.031c0.088,0.021,0.159,0.057,0.206,0.1c0.053,0.039,0.088,0.086,0.101,0.127
		c0.008,0.029,0.022,0.107,0.031,0.313l0.057,2.18c0.004,0.209-0.006,0.268-0.013,0.285c-0.017,0.045-0.044,0.066-0.075,0.078
		c-0.054,0.016-0.123,0.012-0.211-0.008l-0.146-0.039l0.006,0.152l2.903,0.752l0.035,0.008l0.094-1.166V68.108z M51.942,68.497
		l0.132-1.074l-0.151-0.041l-0.004,0.033c-0.064,0.264-0.193,0.443-0.364,0.533c-0.172,0.09-0.403,0.1-0.698,0.023l-0.193-0.049
		c-0.094-0.025-0.155-0.055-0.189-0.086c-0.04-0.033-0.069-0.068-0.084-0.107c-0.01-0.031-0.021-0.109-0.026-0.332l-0.026-0.895
		c0.137,0.037,0.238,0.084,0.313,0.141c0.076,0.057,0.145,0.154,0.211,0.283c0.061,0.137,0.104,0.299,0.129,0.488l0.003,0.02
		l0.148,0.037l-0.048-1.77v-0.023l-0.148-0.037v0.035c-0.023,0.244-0.07,0.42-0.158,0.521c-0.08,0.1-0.217,0.121-0.409,0.07
		l-0.044-0.012l-0.035-1.283l0.298,0.076c0.243,0.064,0.41,0.119,0.497,0.172c0.146,0.086,0.268,0.191,0.353,0.314
		c0.083,0.117,0.147,0.303,0.206,0.553v0.018l0.147,0.037l-0.024-1.02l-0.005-0.02l-2.776-0.723l0.005,0.156l0.126,0.033
		c0.101,0.023,0.181,0.068,0.242,0.125c0.035,0.037,0.071,0.086,0.084,0.139c0.004,0.025,0.012,0.092,0.017,0.273l0.059,2.176
		c0.003,0.211-0.012,0.273-0.02,0.291c-0.017,0.039-0.039,0.066-0.068,0.074c-0.059,0.018-0.13,0.014-0.213-0.008l-0.149-0.041
		l0.006,0.154l2.83,0.729L51.942,68.497z M46.347,66.657c0.147,0.176,0.32,0.338,0.514,0.471c0.198,0.137,0.442,0.244,0.733,0.322
		c0.23,0.061,0.448,0.09,0.658,0.098h0.085c0.18,0,0.36-0.016,0.528-0.059l0.025-0.006l-0.023-0.713
		c-0.002-0.158,0.012-0.197,0.015-0.209c0.017-0.041,0.043-0.072,0.078-0.078c0.039-0.016,0.111-0.012,0.215,0.008l0.042,0.008
		v-0.15l-1.543-0.402l0.005,0.156l0.101,0.029c0.064,0.016,0.127,0.043,0.171,0.088c0.052,0.037,0.083,0.08,0.101,0.117
		c0.01,0.027,0.023,0.094,0.025,0.246l0.023,0.66c-0.074,0.01-0.142,0.014-0.207,0.01c-0.074-0.004-0.15-0.014-0.214-0.029
		c-0.206-0.053-0.394-0.156-0.541-0.307c-0.153-0.143-0.27-0.346-0.343-0.594c-0.07-0.256-0.11-0.543-0.119-0.855
		c-0.009-0.258,0.018-0.506,0.069-0.736c0.054-0.227,0.155-0.385,0.293-0.48c0.144-0.094,0.323-0.111,0.538-0.059
		c0.234,0.063,0.454,0.199,0.654,0.412c0.203,0.213,0.356,0.494,0.467,0.834l0.005,0.014l0.131,0.035l-0.03-1.203v-0.025
		l-0.134-0.029l-0.008,0.025c-0.03,0.096-0.06,0.129-0.084,0.145c-0.02,0.021-0.056,0.027-0.087,0.016
		c-0.012-0.004-0.065-0.027-0.254-0.152c-0.155-0.1-0.264-0.166-0.33-0.199c-0.12-0.055-0.264-0.105-0.414-0.145
		c-0.497-0.129-0.905-0.059-1.225,0.207c-0.322,0.262-0.477,0.654-0.462,1.158c0.003,0.281,0.064,0.549,0.176,0.811
		C46.073,66.292,46.188,66.478,46.347,66.657z M52.245,60.413c0.093,0.029,0.167,0.064,0.215,0.104
		c0.054,0.033,0.11,0.107,0.185,0.211l0.062,0.102l0.06,2.324c0.011,0.168-0.019,0.275-0.082,0.324
		c-0.058,0.045-0.175,0.049-0.343,0.008l-0.034-0.008v0.146l1.211,0.314l-0.003-0.15l-0.102-0.023
		c-0.101-0.033-0.196-0.086-0.281-0.17c-0.082-0.08-0.123-0.217-0.127-0.398l-0.049-2.002l2.206,3.24l0.005,0.008l0.132,0.031
		l-0.075-2.787c-0.004-0.156,0.009-0.26,0.031-0.311c0.021-0.055,0.047-0.08,0.088-0.094c0.039-0.014,0.127-0.014,0.263,0
		l0.031,0.006v-0.146l-1.134-0.293l0.005,0.15l0.021,0.008c0.167,0.043,0.294,0.117,0.368,0.225
		c0.053,0.076,0.085,0.221,0.093,0.408l0.03,1.316l-1.594-2.377l-0.01-0.012l-1.197-0.309l0.003,0.15L52.245,60.413z M48.61,62.517
		l-0.031-0.002l0.004,0.152l1.138,0.289l-0.008-0.148l-0.017-0.006c-0.201-0.07-0.283-0.111-0.31-0.135
		c-0.064-0.061-0.104-0.133-0.104-0.211c0-0.068,0.017-0.15,0.056-0.236l0.12-0.262l1.108,0.281l0.179,0.447
		c0.062,0.158,0.071,0.191,0.071,0.199c0.014,0.031,0.017,0.057,0.017,0.084c0,0.047-0.017,0.066-0.034,0.07
		c-0.013,0.006-0.034,0.01-0.062,0.01c-0.049,0-0.111-0.01-0.183-0.029l-0.099-0.021l0.005,0.15l1.629,0.422l-0.004-0.15
		l-0.017-0.008c-0.098-0.029-0.171-0.076-0.221-0.135c-0.068-0.088-0.167-0.271-0.281-0.551l-1.242-3.014l-0.006-0.016l-0.088-0.025
		l-1.103,2.365c-0.101,0.217-0.185,0.357-0.255,0.418C48.807,62.509,48.719,62.53,48.61,62.517z M49.563,61.741l0.422-0.916
		l0.471,1.146L49.563,61.741z M47.221,62.388l0.114,0.025l1.06-2.256c0.127-0.264,0.215-0.43,0.285-0.49
		c0.078-0.074,0.172-0.111,0.28-0.104l0.036,0.004l-0.005-0.145l-1.128-0.287l0.007,0.146l0.022,0.008
		c0.109,0.025,0.194,0.066,0.264,0.109c0.044,0.027,0.08,0.066,0.107,0.105c0.019,0.037,0.032,0.08,0.032,0.123
		c0,0.037-0.002,0.088-0.017,0.135c-0.016,0.057-0.057,0.16-0.131,0.314l-0.576,1.24l-0.709-1.762
		c-0.078-0.197-0.127-0.311-0.135-0.354c-0.015-0.035-0.022-0.07-0.022-0.1c0-0.043,0.019-0.059,0.03-0.063
		c0.049-0.02,0.14-0.012,0.273,0.02l0.088,0.025v-0.152l-1.616-0.42l0.003,0.15l0.017,0.006c0.119,0.047,0.202,0.1,0.246,0.162
		c0.044,0.064,0.144,0.275,0.282,0.621L47.221,62.388z M43.172,75.81c-0.088,0.311-0.219,0.563-0.399,0.746
		c-0.179,0.188-0.421,0.318-0.716,0.393l-0.193,0.053c-0.088,0.02-0.148,0.027-0.186,0.014c-0.03-0.014-0.051-0.031-0.064-0.064
		c-0.004-0.018-0.018-0.078-0.013-0.314l0.016-0.908c0.138-0.033,0.243-0.043,0.319-0.025c0.064,0.02,0.134,0.078,0.188,0.174
		c0.053,0.1,0.093,0.244,0.106,0.42l0.002,0.037l0.149-0.041l0.026-1.793l-0.144,0.037L42.26,74.56
		c-0.03,0.258-0.088,0.469-0.183,0.613c-0.092,0.154-0.235,0.25-0.433,0.301l-0.028,0.01l0.022-1.287l0.313-0.078
		c0.241-0.064,0.4-0.092,0.491-0.088c0.147,0.008,0.256,0.051,0.334,0.133c0.077,0.074,0.137,0.225,0.177,0.443l0.004,0.033
		l0.146-0.033l0.017-1.041l-2.751,0.705l-0.021,0.008l-0.005,0.152l0.145-0.037c0.103-0.021,0.177-0.021,0.234,0.002
		c0.03,0.016,0.051,0.047,0.064,0.086c0.007,0.02,0.01,0.082,0.01,0.27l-0.036,2.176c-0.004,0.199-0.016,0.279-0.03,0.305
		c-0.021,0.057-0.048,0.102-0.087,0.131c-0.06,0.041-0.127,0.08-0.221,0.102l-0.126,0.033v0.154l2.833-0.734l0.022-0.006l0.17-1.154
		l-0.149,0.039V75.81z M38.684,76.978c-0.085,0.303-0.218,0.555-0.4,0.738c-0.182,0.184-0.418,0.318-0.717,0.395l-0.19,0.049
		c-0.088,0.025-0.147,0.029-0.184,0.014c-0.03-0.012-0.052-0.031-0.066-0.059c-0.008-0.016-0.019-0.082-0.013-0.316l0.013-0.91
		c0.138-0.037,0.242-0.043,0.321-0.025c0.066,0.02,0.132,0.074,0.187,0.174c0.056,0.102,0.095,0.242,0.112,0.422l0.003,0.035
		l0.144-0.039l0.029-1.793l-0.15,0.037v0.018c-0.025,0.26-0.092,0.469-0.185,0.619c-0.088,0.146-0.232,0.25-0.431,0.301
		l-0.026,0.008l0.022-1.287l0.312-0.082c0.241-0.057,0.401-0.088,0.489-0.084c0.146,0.01,0.257,0.053,0.334,0.129
		c0.075,0.078,0.138,0.23,0.179,0.449l0.005,0.033l0.142-0.037l0.026-1.041l-2.757,0.711l-0.021,0.004l-0.003,0.152l0.147-0.035
		c0.093-0.029,0.173-0.029,0.229,0.002c0.031,0.016,0.053,0.045,0.064,0.086c0.006,0.021,0.015,0.084,0.012,0.266l-0.041,2.18
		c-0.004,0.197-0.019,0.271-0.027,0.301c-0.02,0.057-0.053,0.1-0.091,0.131c-0.054,0.045-0.128,0.078-0.216,0.104l-0.133,0.033
		v0.152l2.84-0.73l0.018-0.01l0.175-1.15l-0.148,0.039L38.684,76.978z M35.37,75.507c-0.015,0.082-0.036,0.146-0.07,0.188
		c-0.032,0.041-0.071,0.07-0.119,0.084c-0.022,0.004-0.12,0.004-0.264-0.018c-0.256-0.037-0.506-0.025-0.734,0.037
		c-0.313,0.08-0.61,0.236-0.887,0.467c-0.281,0.229-0.506,0.512-0.676,0.838c-0.17,0.328-0.259,0.656-0.262,0.977
		c-0.003,0.301,0.063,0.572,0.206,0.803c0.146,0.234,0.362,0.389,0.629,0.463c0.123,0.035,0.256,0.049,0.394,0.049
		c0.165,0,0.351-0.023,0.544-0.074c0.263-0.068,0.497-0.176,0.698-0.313c0.202-0.141,0.395-0.334,0.584-0.576l0.006-0.008
		l0.003-0.391L35.37,78.11c-0.195,0.27-0.371,0.471-0.541,0.604c-0.168,0.133-0.353,0.223-0.554,0.275
		c-0.237,0.061-0.436,0.051-0.582-0.023c-0.147-0.082-0.254-0.23-0.319-0.447c-0.07-0.219-0.101-0.482-0.092-0.77
		c0.004-0.297,0.061-0.586,0.161-0.852c0.08-0.209,0.197-0.393,0.369-0.549c0.164-0.162,0.353-0.268,0.545-0.32
		c0.239-0.059,0.446-0.033,0.624,0.072c0.182,0.107,0.305,0.293,0.368,0.568l0.006,0.029l0.146-0.035l0.021-1.213l-0.148,0.037
		L35.37,75.507z M43.591,71.671c-0.08,0.018-0.149,0.008-0.207-0.02c-0.031-0.018-0.084-0.063-0.207-0.211l-0.737-0.887
		c0.186-0.1,0.334-0.213,0.442-0.338c0.176-0.209,0.273-0.441,0.278-0.689c0.006-0.209-0.058-0.373-0.17-0.5
		c-0.121-0.125-0.274-0.191-0.463-0.201c-0.187-0.012-0.472,0.037-0.869,0.141l-1.508,0.389l-0.019,0.006l-0.003,0.152l0.038-0.01
		c0.141-0.039,0.241-0.051,0.286-0.039c0.049,0.012,0.079,0.035,0.095,0.068c0.011,0.018,0.028,0.088,0.021,0.314l-0.033,2.146
		c-0.003,0.219-0.021,0.303-0.033,0.336c-0.028,0.047-0.058,0.088-0.105,0.131c-0.05,0.033-0.138,0.066-0.252,0.096
		c-0.083,0.018-0.148,0.006-0.191-0.021c-0.067-0.043-0.155-0.178-0.256-0.398l-1.125-2.414l-0.015-0.025l-0.084,0.025l-1.208,2.951
		c-0.113,0.279-0.21,0.469-0.279,0.566c-0.071,0.092-0.162,0.164-0.277,0.211l-0.036,0.012c-0.087,0.021-0.158,0.021-0.201,0.008
		c-0.049-0.016-0.08-0.041-0.088-0.07c-0.009-0.018-0.022-0.082-0.019-0.297l0.036-2.18c0.003-0.197,0.017-0.271,0.029-0.301
		c0.022-0.057,0.05-0.098,0.088-0.127c0.059-0.047,0.133-0.082,0.221-0.105l0.128-0.035l0.004-0.152l-1.363,0.352l-0.012,0.006
		l-0.894,2.355l-0.854-1.906l-1.351,0.35l-0.022,0.008l-0.003,0.15l0.139-0.033c0.084-0.025,0.159-0.027,0.202-0.012
		c0.044,0.016,0.076,0.037,0.087,0.066c0.011,0.016,0.021,0.08,0.021,0.295l-0.031,2.094c-0.005,0.182-0.015,0.23-0.015,0.24
		c-0.018,0.078-0.042,0.141-0.067,0.191c-0.034,0.045-0.082,0.09-0.137,0.125c-0.063,0.037-0.127,0.07-0.195,0.086l-0.057,0.012
		v0.154l1.146-0.293l0.023-0.01l0.005-0.154l-0.039,0.012c-0.143,0.035-0.246,0.043-0.304,0.01
		c-0.062-0.031-0.102-0.078-0.118-0.143c-0.007-0.023-0.011-0.094-0.007-0.291l0.04-2.195l1.155,2.549l0.01,0.021l0.103-0.027
		l1.233-3.197l-0.04,2.283c-0.003,0.205-0.018,0.281-0.029,0.307c-0.022,0.055-0.048,0.104-0.088,0.129
		c-0.054,0.049-0.127,0.082-0.222,0.109l-0.127,0.027v0.156l1.627-0.424v0.002l1.117-0.289l0.021-0.006v-0.148l-0.03,0.006
		c-0.176,0.031-0.281,0.031-0.302,0.025c-0.06-0.021-0.088-0.066-0.088-0.146c0.004-0.066,0.024-0.162,0.073-0.273l0.132-0.346
		l1.104-0.283l0.158,0.346c0.056,0.133,0.062,0.154,0.064,0.162c0.012,0.025,0.015,0.051,0.015,0.074
		c0,0.041-0.018,0.076-0.048,0.105c-0.044,0.045-0.129,0.086-0.252,0.115l-0.088,0.023v0.15l1.514-0.391l0.106-0.027h0.006
		l1.582-0.412l0.022-0.006l0.005-0.148l-0.039,0.008c-0.106,0.025-0.188,0.041-0.244,0.041c-0.016,0-0.032-0.002-0.043-0.006
		c-0.047-0.01-0.078-0.033-0.097-0.066c-0.008-0.02-0.025-0.084-0.021-0.313l0.014-0.906l0.172-0.045l1.006,1.225l0.011,0.012
		l1.043-0.266l0.023-0.006l0.003-0.152L43.591,71.671z M42.313,69.733c-0.007,0.166-0.036,0.313-0.102,0.434
		c-0.057,0.119-0.141,0.215-0.25,0.281c-0.107,0.068-0.273,0.131-0.489,0.188l-0.101,0.023l0.026-1.383l0.232-0.066
		c0.248-0.059,0.426-0.049,0.532,0.033C42.267,69.327,42.317,69.493,42.313,69.733z M38.613,71.933l-0.891,0.227l0.474-1.15
		 M42.375,64.114c0.02-0.057,0.051-0.102,0.088-0.131c0.055-0.049,0.135-0.084,0.219-0.102l0.132-0.037l0.003-0.154l-1.734,0.449
		l-0.023,0.006v0.148l0.146-0.035c0.083-0.018,0.149-0.021,0.197-0.006c0.045,0.012,0.071,0.035,0.088,0.068
		c0.01,0.018,0.023,0.078,0.019,0.295l-0.039,2.176c-0.006,0.201-0.019,0.275-0.028,0.305c-0.021,0.055-0.052,0.1-0.09,0.129
		c-0.054,0.043-0.124,0.08-0.217,0.104l-0.132,0.035v0.152l1.729-0.449l0.025-0.004l0.003-0.154l-0.145,0.041
		c-0.085,0.018-0.152,0.021-0.201,0.008c-0.039-0.02-0.076-0.041-0.089-0.07c-0.009-0.016-0.021-0.084-0.019-0.297l0.035-2.176
		C42.348,64.218,42.361,64.14,42.375,64.114z M38.19,67.952c-0.022,0.045-0.057,0.086-0.104,0.125
		c-0.055,0.039-0.149,0.078-0.295,0.117l-0.022,0.004v0.152l1.683-0.434c0.463-0.117,0.821-0.313,1.068-0.574
		c0.203-0.221,0.307-0.459,0.317-0.713c0.004-0.248-0.093-0.426-0.273-0.533c-0.116-0.066-0.294-0.1-0.541-0.104
		c0.232-0.131,0.406-0.266,0.51-0.402c0.116-0.16,0.176-0.322,0.176-0.486c0.01-0.16-0.04-0.299-0.132-0.414
		c-0.091-0.117-0.219-0.191-0.379-0.221c-0.156-0.025-0.419,0.004-0.793,0.104l-1.56,0.404l-0.021,0.008l-0.002,0.148l0.038-0.012
		c0.14-0.035,0.239-0.049,0.283-0.035c0.053,0.012,0.078,0.035,0.095,0.064c0.009,0.02,0.026,0.09,0.023,0.318l-0.036,2.146
		C38.221,67.835,38.203,67.917,38.19,67.952z M39.055,66.396c0.232-0.057,0.405-0.08,0.519-0.064
		c0.116,0.016,0.198,0.074,0.27,0.168c0.061,0.098,0.091,0.223,0.088,0.373c0,0.129-0.03,0.258-0.088,0.375
		c-0.059,0.119-0.143,0.223-0.247,0.309c-0.103,0.082-0.221,0.137-0.342,0.174c-0.07,0.02-0.129,0.016-0.169-0.014
		c-0.033-0.029-0.051-0.08-0.048-0.158L39.055,66.396z M39.758,65.677c-0.058,0.104-0.135,0.195-0.236,0.273
		c-0.102,0.072-0.26,0.139-0.456,0.193l0.02-1.24c0.217-0.059,0.375-0.072,0.472-0.059c0.097,0.023,0.171,0.072,0.221,0.146
		c0.048,0.068,0.074,0.176,0.074,0.314C39.846,65.448,39.816,65.573,39.758,65.677z M37.119,65.47
		c0.021-0.055,0.052-0.102,0.097-0.129c0.048-0.047,0.123-0.082,0.211-0.104l0.127-0.033l0.004-0.154l-1.73,0.447l-0.023,0.006
		L35.8,65.655l0.146-0.037c0.081-0.021,0.151-0.025,0.2-0.012c0.043,0.018,0.076,0.041,0.088,0.07
		c0.006,0.018,0.019,0.086,0.015,0.301l-0.031,2.172c-0.005,0.201-0.021,0.277-0.036,0.305c-0.021,0.059-0.046,0.102-0.087,0.129
		c-0.053,0.047-0.129,0.082-0.217,0.105l-0.131,0.035l-0.004,0.15l1.735-0.447l0.022-0.006l0.004-0.156l-0.146,0.043
		c-0.081,0.021-0.152,0.021-0.196,0.008c-0.05-0.014-0.074-0.037-0.095-0.07c-0.008-0.018-0.021-0.078-0.015-0.293l0.038-2.178
		C37.096,65.573,37.107,65.499,37.119,65.47z M34.658,66.05c0.146-0.037,0.25-0.049,0.298-0.037c0.101,0.023,0.18,0.074,0.238,0.141
		c0.063,0.072,0.109,0.203,0.155,0.389l0.006,0.031l0.142-0.037l0.013-0.959l-2.949,0.768l-0.022,0.002l-0.018,0.961l0.15-0.043
		l0.004-0.02c0.039-0.246,0.127-0.455,0.263-0.615c0.103-0.111,0.252-0.197,0.462-0.256l0.198-0.047l-0.039,2.512
		c-0.005,0.199-0.021,0.275-0.03,0.301c-0.023,0.055-0.054,0.1-0.093,0.135c-0.052,0.043-0.127,0.076-0.214,0.102l-0.129,0.031
		l-0.008,0.154l1.737-0.447l0.021-0.008l0.004-0.15l-0.145,0.037c-0.084,0.021-0.154,0.023-0.203,0.01
		c-0.044-0.018-0.074-0.037-0.088-0.064c-0.008-0.023-0.022-0.084-0.018-0.297l0.044-2.531L34.658,66.05z M40.033,62.638
		l-0.041,0.01c-0.098,0.027-0.159,0.043-0.198,0.043H39.79c-0.063,0-0.113-0.016-0.146-0.043c-0.026-0.023-0.043-0.053-0.043-0.09
		c0-0.045,0.043-0.15,0.226-0.42l0.481-0.715l0.437,0.563c0.082,0.107,0.137,0.182,0.155,0.223c0.012,0.018,0.015,0.035,0.015,0.061
		c0,0.033-0.017,0.07-0.047,0.104c-0.023,0.023-0.085,0.066-0.233,0.111l-0.017,0.006v0.15l1.611-0.414l0.018-0.006l0.008-0.148
		l-0.035,0.004c-0.082,0.014-0.148,0.002-0.207-0.023c-0.038-0.021-0.122-0.094-0.293-0.32l-0.862-1.109l0.615-0.895
		c0.166-0.24,0.274-0.393,0.313-0.441c0.067-0.078,0.127-0.129,0.184-0.166c0.048-0.033,0.128-0.064,0.216-0.088l0.021-0.004
		l0.006-0.154l-1.253,0.32l-0.003,0.154l0.039-0.008c0.093-0.025,0.155-0.033,0.201-0.025c0.036,0.006,0.066,0.025,0.088,0.053
		c0.018,0.023,0.025,0.053,0.025,0.092c0,0.059-0.047,0.189-0.263,0.51l-0.325,0.486l-0.368-0.492l-0.158-0.207
		c-0.006-0.016-0.012-0.041-0.012-0.07c0-0.043,0.015-0.074,0.045-0.109c0.037-0.035,0.099-0.064,0.187-0.086l0.101-0.023v-0.156
		l-1.644,0.424l-0.019,0.006l-0.005,0.145l0.031-0.002c0.071-0.006,0.123-0.006,0.159,0.008c0.04,0.01,0.074,0.035,0.115,0.072
		c0.009,0.01,0.058,0.061,0.223,0.281l0.791,1.004l-0.646,0.947c-0.191,0.283-0.343,0.479-0.446,0.582
		c-0.08,0.07-0.195,0.141-0.326,0.193l-0.026,0.006v0.152l1.305-0.336L40.033,62.638z M35.042,63.929l-0.017,0.008l-0.004,0.152
		l1.139-0.295l0.003-0.154l-0.035,0.014c-0.175,0.027-0.284,0.027-0.302,0.021c-0.063-0.02-0.092-0.068-0.088-0.146
		c0-0.066,0.024-0.158,0.07-0.275l0.137-0.342l1.101-0.287l0.159,0.344c0.052,0.125,0.066,0.156,0.066,0.162
		c0.009,0.027,0.012,0.053,0.012,0.08c-0.003,0.041-0.012,0.076-0.043,0.102c-0.048,0.047-0.133,0.084-0.254,0.117l-0.088,0.023
		v0.15l1.603-0.416l0.026-0.004v-0.15l-0.039,0.008c-0.088,0.016-0.154,0.004-0.205-0.025c-0.045-0.035-0.127-0.125-0.256-0.404
		l-1.121-2.412l-0.008-0.02l-0.088,0.02l-1.209,2.955c-0.109,0.279-0.207,0.467-0.281,0.566
		C35.246,63.812,35.158,63.886,35.042,63.929z M36.059,62.638l0.471-1.148l0.416,0.92L36.059,62.638z M34.221,64.294l0.006-0.154
		l-0.039,0.01c-0.143,0.037-0.244,0.055-0.287,0.037c-0.051-0.01-0.079-0.031-0.096-0.066c-0.014-0.023-0.026-0.096-0.024-0.316
		l0.015-0.889c0.357-0.1,0.614-0.184,0.774-0.262c0.233-0.119,0.417-0.271,0.554-0.461c0.136-0.189,0.206-0.398,0.21-0.617
		c0.004-0.268-0.097-0.463-0.308-0.584c-0.206-0.123-0.544-0.123-1.014,0l-1.42,0.367l-0.019,0.006l-0.003,0.152l0.038-0.008
		c0.137-0.037,0.237-0.049,0.291-0.037c0.038,0.012,0.071,0.029,0.088,0.063c0.008,0.025,0.03,0.09,0.026,0.316l-0.04,2.15
		c-0.003,0.217-0.023,0.297-0.036,0.332c-0.016,0.043-0.055,0.088-0.104,0.129c-0.051,0.037-0.146,0.078-0.298,0.113l-0.019,0.006
		l-0.006,0.15l1.684-0.434L34.221,64.294z M33.801,62.661l0.024-1.369l0.075-0.018c0.193-0.055,0.343-0.039,0.439,0.039
		c0.098,0.08,0.145,0.246,0.142,0.477c-0.005,0.242-0.062,0.432-0.163,0.57c-0.101,0.137-0.25,0.234-0.436,0.283
		C33.862,62.644,33.836,62.653,33.801,62.661z M143.806,86.036l2.999-1.131l0.048-0.02c4.248-1.762,4.861-2.859,4.658-5.688V67.767
		c3.239,8.217,6.304,13.994,12.579,13.994c0.854,0,1.766-0.107,2.744-0.33l2.449-0.551l-1.685-1.859
		c-1.076-1.189-1.595-2.107-2.196-3.172c-0.246-0.436-0.506-0.887-0.813-1.385c-1.473-2.387-4.963-3.189-7.792-1.926
		c-1.289-2.551-2.58-5.869-4.134-9.969l-0.34-0.779c-0.269-0.611-0.539-1.229-0.813-1.846v-0.104h-0.044
		c-0.967-2.162-1.995-4.338-3.225-6.375c-1.112-1.848-2.25-3.442-3.473-4.875c-3.273-3.844-7.606-6.232-12.881-7.104
		c-3.646-0.603-6.23-0.725-9.495-0.89c-0.677-0.031-1.39-0.066-2.142-0.107c-1.481-0.08-4.534-0.33-7.491-0.571
		c-1.996-0.161-4.035-0.332-5.647-0.452c0.11-0.452,0.176-0.92,0.176-1.408c0-0.651-0.063-1.233-0.176-1.751h20.975
		c5.41,0,9.327-2.388,11.656-7.09c5.378-0.053,9.262-2.49,11.56-7.245h0.748c5.598,0,9.602-2.551,11.896-7.587l0.944-2.074H93.81
		c-4.672,0-8.646,3.045-10.137,7.756l-0.044,0.166c-1.209-3.366-3.422-6.226-6.254-7.911c-3.945-2.341-8.427-3.132-12-2.107
		c-1.178,0.343-2.357,0.877-3.31,1.503c-0.821,0.545-1.974,1.411-2.805,2.479c-0.91,1.162-1.783,2.573-2.433,3.889
		c-0.404,0.338-0.727,0.684-0.945,1.015l-0.854,1.597l-0.044,0.088c-1.016,2.302-2.254,3.893-3.221,5.021
		c-0.959,1.112-1.007,2.174-0.876,2.865c0.139,0.759,0.544,1.379,0.981,1.846l-0.026,0.042c-0.286,0.487-0.43,1.048-0.43,1.615
		c0,1.877,1.629,3.293,3.637,3.293c1.46,0,2.656-0.683,3.912-1.516c0.513-0.34,1.872-1.239,2.314-1.29
		c0.563,0,1.073,0.513,1.073,1.07c0,1.538-1.978,2.365-3.397,2.468l-2.892,0.307c-2.073,0.198-3.058,1.297-3.058,2.282
		c0,0.991,0.47,1.542,0.799,1.874l0.215,0.22l0.736,0.649l-3.063,4.928c-2.185-2.02-4.739-3.242-6.997-3.314
		c-1.468-0.047-2.732,0.396-3.665,1.275c-0.269,0.252-0.506,0.546-0.702,0.867h-0.059c-2.417,0-4.364,1.294-5.321,2.744
		c-1.032,1.592-0.657,4.343,0.654,6.441l-7.725,2.006v36.918h141.73v-7.361H143.806z M162.085,75.997
		c0.28,0.457,0.527,0.883,0.76,1.293c0.286,0.51,0.567,0.998,0.896,1.516c-2.225-0.141-3.911-1.369-5.473-3.699
		C159.708,74.604,161.448,74.96,162.085,75.997z M131.412,44.38c4.564,0.75,8.309,2.806,11.118,6.109
		c0.606,0.703,1.187,1.458,1.753,2.274c-7.687-1.008-10.362-2.131-14.665-8.653C130.189,44.19,130.783,44.275,131.412,44.38z
		 M128.088,33.379h-14.428c1.244-1.085,2.276-2.476,3.112-4.157h19.604C134.532,32.046,131.859,33.379,128.088,33.379z
		 M139.577,26.289h-14.429c1.276-1.117,2.336-2.56,3.19-4.316h19.624C146.117,24.909,143.413,26.289,139.577,26.289z
		 M140.554,15.243h19.545c-1.834,2.582-4.438,3.799-8.047,3.799h-14.427C138.771,18.035,139.752,16.768,140.554,15.243z
		 M61.578,15.999c0.458-0.589,1.214-1.239,2.108-1.838c0.7-0.461,1.617-0.872,2.505-1.129c1.421-0.406,3.045-0.436,4.729-0.112
		l-5.18,3.193c-0.647-0.066-1.279-0.097-1.896-0.097c-0.878,0-1.688,0.071-2.431,0.189C61.472,16.135,61.524,16.062,61.578,15.999z
		 M55.521,38.874c0.044-0.204,0.207-0.369,0.378-0.362l2.527,0.083c3.082-0.11,6.218-1.375,6.57-4.579
		c0-2.171-1.541-4.283-3.719-4.283c-1.159,0-2.47,0.805-3.941,1.778c-0.953,0.633-1.713,1.135-2.285,1.135
		c-0.391,0-0.704-0.258-0.704-0.471c0-0.035,0.006-0.075,0.021-0.106l1.616-2.159l-1.402-0.933
		c-0.294-0.197-0.755-0.558-0.809-0.837c-0.026-0.13,0.162-0.359,0.224-0.429c0.576-0.674,1.241-1.494,1.908-2.509
		c0.411-0.574,0.65-0.89,1.35-0.89c0.675,0,1.23,0.543,1.23,1.215c0,0.444,0.487,0.797,1.094,0.797c0.604,0,0.879-0.428,1.252-0.797
		c0,0,1.438-1.318,0.678-1.94c-0.872-0.714-4.351,0.74-3.384-2.461l0.241-0.454c0.374-0.491,2.039-1.724,5.479-1.724
		c0.651,0,1.344,0.047,2.047,0.135l0.517,0.063l7.307-4.5c0.067,0.152,0.087,0.262,0.087,0.262v-0.003l0.004,0.043
		c0.383,2.212-1.009,4.842-3.242,6.123l-0.888,0.512l0.577,3.291c-1.876,0.578-3.188,2.076-3.188,3.889
		c0,0.618,0.146,1.358,0.33,2.295c0.201,1.032,0.431,2.208,0.492,3.399c0,3.427-4.731,5.698-8.736,5.566l-0.104-0.003
		c-0.168-0.004-2.717-0.209-3.34-0.699C55.584,39.228,55.491,39.026,55.521,38.874z M37.417,49.632
		c0.569-0.879,1.899-1.64,3.547-1.356l1.253,0.22l0.395-1.207c0.105-0.32,0.246-0.561,0.444-0.744
		c0.352-0.332,0.875-0.486,1.547-0.47c1.768,0.055,3.98,1.29,5.774,3.214c0.655,0.701,1.23,1.514,1.755,2.334
		c0.099,0.176,0.215,0.36,0.313,0.522c0.146,0.234,0.269,0.421,0.302,0.462c0.06,0.109,0.942,1.449,0.885,1.531
		c0.607-0.851,1.218-1.701,1.82-2.552c0.021-0.024-0.008-0.108-0.058-0.216c-0.136-0.292-0.457-0.795-0.649-1.098
		c-0.049-0.077-0.099-0.145-0.137-0.222c-0.011-0.002-0.013-0.011-0.018-0.014c-0.018-0.031-0.097-0.16-0.202-0.33
		c-0.206-0.313-0.497-0.773-0.625-1.02l3.833-6.121c0.949,0.201,1.768,0.231,2.154,0.231l0.092-0.002
		c5.396,0,10.982-3.112,10.982-8.317v-0.132c-0.071-1.413-0.33-2.771-0.547-3.854c-0.144-0.715-0.274-1.393-0.274-1.73
		c0-0.571,0.802-1.207,1.95-1.207h1.75l-0.791-4.519c2.455-1.809,3.967-4.746,3.889-7.561c2.644,2.031,4.507,5.546,4.851,9.285
		c0.104,1.088-0.114,2.609-0.467,4.21l-0.187,0.668l0.028,0.009c-0.618,2.605-1.546,5.292-2.034,6.563l-0.447,1.178l1.098,0.619
		c1.971,1.114,3.179,1.934,3.179,4.523c0,2.974-2.678,5.247-5.266,5.732l-3.535,0.662l2.988,1.997
		c0.964,0.64,1.536,1.681,1.536,2.787c0,1.865-1.59,3.386-3.543,3.386h-1.129l-0.317,1.031c-1.097,3.576-2.289,5.326-6.121,5.699
		c0.177-1.09,0.3-2.131,0.3-3.613c0-0.342-0.035-1.32-0.05-1.629l-0.168-3.334l-2.348,2.383c-0.796,0.805-2.202,1.447-3.755,1.754
		v-2.906l-16.769-4.35l-5.968,1.545C37.346,52.346,37.083,50.146,37.417,49.632z M32.586,86.036l12.06-3.137L56.7,86.036H32.586z
		 M58.478,83.472l-13.832-3.598l-13.83,3.598V58.747l13.83-3.592l13.832,3.592V83.472z M64.915,78.661
		c-1.25,1.795-1.403,4.273-0.462,7.375h-3.038V62.354c1.091-0.168,2.261-0.477,3.349-0.975c-0.061,1.033-0.207,1.854-0.398,2.943
		c-0.044,0.252-0.088,0.516-0.139,0.797l-0.293,1.707h1.739c2.603,0,4.537-0.4,6.025-1.17v9.887c0,0.254-0.191,0.459-0.435,0.459
		h-0.438C68.241,76.003,66.086,76.968,64.915,78.661z M96.783,79.3c-1.064,1.215-2.097,3.338-1.43,6.736H77.394
		c1.928-0.189,3.331-0.641,4.298-1.646c1.178-1.223,1.282-2.895,1.242-4.088c0.036-0.105,0.234-0.508,1.113-0.9l1.55-0.713
		l-0.93-1.424c-1.534-2.357-0.863-7.51-0.275-10.311h0.144c6.09,0,10.026-1.264,14.183-2.598c1.083-0.348,2.209-0.705,3.385-1.053
		l0.035-0.012c0.028-0.008,1.239-0.393,2.893-0.781l5.857,9.646l0.053,0.084c0.58,0.826,0.654,1.377-0.403,2.615l-2.942,3.164
		l-4.806-0.893l-0.044-0.006C100.576,76.79,98.227,77.644,96.783,79.3z M98.365,86.036c-0.527-2.072-0.315-3.73,0.632-4.814
		c0.906-1.033,2.296-1.35,3.279-1.209l5.575,1.041l0.142,0.021h0.772l3.942-4.25l0.041-0.037c0.673-0.785,2.719-3.158,0.629-6.184
		l-5.266-8.674c0.864-0.123,1.743-0.205,2.558-0.205h0.036c0.024,0.006,2.666-0.039,5.496,1.609c0.384,0.818,0.914,1.9,1.508,3.105
		c1.107,2.238,2.481,5.029,2.865,6.156c0.122,0.35,0.496,1.428-0.825,2.789l-10.097,10.65H98.365z M132.778,86.036h-19.082
		l8.175-8.627c1.653-1.705,2.181-3.754,1.484-5.764c-0.395-1.162-1.476-3.393-2.601-5.668c3.244,1.5,8.17,2.857,18.179,3.664
		c1.206,0.1,1.526,0.512,1.769,1.609l0.435,4.316l-5.233,1.166c-1.754,0.35-3.125,1.502-3.774,3.164
		C131.412,81.741,131.653,83.911,132.778,86.036z M134.867,80.966c0.287-0.74,0.847-1.213,1.619-1.361l7.837-1.744l-0.711-6.986
		l-0.02-0.148c-0.198-0.92-0.778-3.705-4.416-4.006c-14.01-1.129-17.262-3.203-20.663-5.402c-0.005-0.01-0.008-0.018-0.013-0.029
		l-0.023,0.01l-0.219-0.141c-3.634-2.352-7.247-2.373-7.604-2.365c-3.968,0.002-8.986,1.576-9.396,1.705
		c-1.211,0.355-2.34,0.715-3.439,1.07c-4.387,1.408-8.174,2.633-14.536,2.441l-1.171-0.037l-0.294,1.125
		c-0.228,0.863-2.014,7.893-0.29,12.41c-1.542,1.213-1.542,2.615-1.533,2.803c0.064,1.549-0.301,1.926-0.424,2.049
		c-0.732,0.764-3.178,0.863-5.229,0.863h-0.025h-0.747l-0.439,0.607c-1.271,1.742-4.004,2.15-5.756,1.703
		c-0.776-2.342-0.797-4.131-0.05-5.203c0.879-1.258,2.737-1.4,3.499-1.4h0.438c1.863,0,3.371-1.518,3.371-3.385V62.956
		c0.571-0.875,1.024-1.883,1.419-3.014c3.077-0.492,5.427-3.1,5.427-6.234c0-1.205-0.355-2.362-0.997-3.355
		c2.844-1.369,5.273-4.162,5.273-7.822c0-3.659-1.842-5.342-3.59-6.441c0.493-1.401,1.304-3.876,1.857-6.363l2.462-8.798
		c1.099-3.454,3.972-5.686,7.324-5.686h43.314c-1.832,2.579-4.436,3.799-8.047,3.799h-26.203l-1.372,2.931h23.488
		c-1.847,2.936-4.55,4.316-8.386,4.316H99.573l-1.37,2.933h15.2c-1.842,2.824-4.519,4.157-8.284,4.157h-9.28l-1.371,2.929h9.734
		c0.088,0.118,0.332,0.562,0.332,1.751c0,1.883-1.585,3.414-3.529,3.414c-0.67,0-1.243-0.148-2.245-0.562
		c-0.431-0.179-0.861-0.36-1.288-0.547l-2.257,2.028c0.417,0.18,0.842,0.361,1.268,0.538c1.947,0.85,3.041,1.29,4.522,1.29
		c1.791,0,3.402-0.742,4.55-1.924c1.67,0.107,4.36,0.331,6.963,0.543c3.113,0.256,6.054,0.494,7.578,0.577
		c0.76,0.042,1.472,0.077,2.153,0.11c1.292,0.062,2.474,0.124,3.655,0.209c5.911,9.593,8.943,10.852,20.397,12.225
		c0.82,1.477,1.563,3.037,2.271,4.613v18.678l0.005,0.105c0.063,0.859,0.063,1.152-0.055,1.305
		c-0.396,0.523-2.168,1.256-2.771,1.512l-9.655,3.637C134.816,84.077,134.356,82.271,134.867,80.966z M665.671,16.208v-3.955
		h-33.047v3.955h10.371l0.035,73.213h-10.406v3.938h33.047v-3.938h-10.379V16.208H665.671z M410.064,16.192
		c20.873,0,28.582-0.999,32.211,24.592h2.205V12.299h-82.86v3.894h2.163c2.934,0,9.863,0.22,10.268,6.326h-0.004v46.73
		l-38.765-56.95h-21.106v3.894h3.516c4.153,0,9.989,0.183,10.258,6.326v59.875c0,5.84-8.755,8.064-12.411,8.064h-0.035v2.9h28.556
		v-2.9c-3.659,0-12.458-2.225-12.458-8.064l0.098-52.712c15.34,21.925,44.308,63.722,44.571,63.677h1.445v-70.84
		c0.4-6.106,7.35-6.326,10.264-6.326h9.518v73.307h-10.85v3.859h58.564V63.427h-2.936c-2.914,22.639-8.648,26.078-24.754,26.078
		h-7.457V53.917h4.324c7.219,0.174,11.328,4.387,12.801,16.813h2.662L429.83,33.92c-0.053,0.074-2.615,0-2.615,0
		c0,0.186-0.521,15.829-13.145,15.605h-4.006V16.192z M625.9,63.427c-2.914,22.639-8.652,26.025-24.748,26.025h-0.977V16.208h10.24
		v-3.946h-33.674v3.946h10.246v73.245h-8.131l-29.918-79.379h-4.402c0.102-0.047-24.855,72.021-24.904,72.232
		c0.049-0.211-1.885,6.188-5.99,6.984c-3.787,0.178-3.502-1.797-3.502-2.49V72.915c0-3.641-0.285-11.922-4.07-15.721
		c-4.24-4.268-11.486-4.587-11.324-4.75c0,0,18.396-3.793,18.396-21.273c0-12.264-8.518-18.359-22.77-18.893h-40.432v3.944h10.344
		v73.245h-10.344v3.889h33.168v-3.889h-10.35V54.253h13.795c23.93,1.973-4.107,39.15,27.256,39.104h19.766v-3.904
		c-1.098,0-8.34,0.215-8.793-4.828c-0.299-3.65,4.768-16.76,4.768-16.76h26.914c-0.012-0.047,8.369,21.604,8.445,21.604h-9.387
		v3.889h73.322v-29.93H625.9z M485.97,50.137h-13.152V16.192h16.822c9.873,1.494,10.273,12.9,10.273,16.532
		C499.914,41.502,496.246,50.137,485.97,50.137z M531.375,64.12l11.693-35.028l12.455,35.028H531.375z M251.281,50.991h-32.063
		v3.633h10.979v26.35c-1.85,6.686-11.711,9.484-14.643,9.484c-20.479,0-19.02-29.961-19.02-37.984
		c0-7.332-0.734-38.004,19.02-38.004c13.908,0,21.226,13.854,24.167,26.31h2.218c0-5.137,0.083-29.527,0.035-29.468
		c0.048-0.193-9.545,6.885-9.575,6.768c0.215-0.04-4.381-6.555-16.845-6.555c-24.17,0-33.034,24.118-32.959,40.949
		c0.109,15.391,7.212,41.623,32.959,41.623c8.091,0,13.795-4.117,16.845-8.797c0.03-0.104,10.203,8.027,10.239,8.057V54.624h8.644
		V50.991z M274.498,49.525l0.052-33.284c20.866,0,28.526-1.048,32.16,24.543h2.201V12.299l-56.825,0.026v3.916h9.839v73.258h-10.846
		v3.859h58.57V63.427h-2.939c-2.917,22.639-8.654,26.078-24.755,26.078h-7.457V53.917h4.322c7.228,0.174,11.336,4.387,12.808,16.814
		h2.654l-0.025-36.811c-0.044,0.074-2.607,0-2.607,0c0,0.185-0.518,15.828-13.145,15.604H274.498z"/>
</g>
</svg>
